<svg xmlns="http://www.w3.org/2000/svg" width="18" height="18" viewBox="0 0 18 18">
    <path data-name="패스 8422" d="M6.623 11.621v-.7A5.146 5.146 0 0 1 4.11 6.738a4.75 4.75 0 0 1 5.813-4.625 4.67 4.67 0 0 1 3.161 2.441 4.945 4.945 0 0 1-2 6.365v.7c0 .174.066.576-.576.576H7.2c-.661.005-.577-.256-.577-.574z" transform="translate(.14 1.004)" style="stroke:#7e7e8f;stroke-linecap:round;stroke-linejoin:round;fill:none"/>
    <path data-name="패스 8423" d="M8.5 21.805a7.683 7.683 0 0 1 4.2 0" transform="translate(-1.617 -6.805)" style="stroke:#7e7e8f;stroke-linecap:round;stroke-linejoin:round;fill:none"/>
</svg>
