<svg width="11" height="11" viewBox="0 0 11 11" fill="none" xmlns="http://www.w3.org/2000/svg">
<g id="list-arrow_icon">
<path id="arrow_open_icon" d="M9.42899 3.14283H1.57185C1.4316 3.14283 1.2939 3.18037 1.17305 3.25156C1.05221 3.32274 0.952619 3.42498 0.884628 3.54765C0.816637 3.67033 0.782722 3.80896 0.786404 3.94917C0.790085 4.08937 0.831229 4.22604 0.905563 4.34497L4.83414 7.72826C4.9046 7.84196 5.00293 7.93579 5.1198 8.00085C5.23668 8.06592 5.36823 8.10007 5.50199 8.10007C5.63576 8.10007 5.76731 8.06592 5.88418 8.00085C6.00106 7.93579 6.09938 7.84196 6.16985 7.72826L10.0984 4.34497C10.1729 4.22581 10.2141 4.08886 10.2176 3.94838C10.2212 3.8079 10.187 3.66904 10.1186 3.54627C10.0502 3.4235 9.95019 3.32132 9.8289 3.25036C9.70761 3.1794 9.56951 3.14227 9.42899 3.14283Z" fill="#94A5B7"/>
</g>
</svg>
