<svg xmlns="http://www.w3.org/2000/svg" width="20" height="20" viewBox="0 0 20 20">
    <path style="fill:none" d="M0 0h20v20H0z"/>
    <path data-name="패스 8407" d="M35.077 40H24.923a.923.923 0 0 0-.923.923v8.308a.923.923 0 0 0 .923.923h10.154a.923.923 0 0 0 .923-.923v-8.308a.923.923 0 0 0-.923-.923zm0 9.231H24.923v-8.308h10.154zm-1.846-6a.462.462 0 0 1-.462.462h-5.538a.462.462 0 1 1 0-.923h5.538a.462.462 0 0 1 .462.461zm0 1.846a.462.462 0 0 1-.462.462h-5.538a.462.462 0 1 1 0-.923h5.538a.462.462 0 0 1 .462.461zm0 1.846a.462.462 0 0 1-.462.462h-5.538a.462.462 0 1 1 0-.923h5.538a.462.462 0 0 1 .462.461z" transform="translate(-20 -35)" style="fill:#2a72e5"/>
</svg>
