<svg xmlns="http://www.w3.org/2000/svg" width="32" height="27.713" viewBox="0 0 32 27.713">
    <path data-name="패스 298" d="M31.644 13.239 24 0H8l-.356.618L0 13.857l5.1 8.825L7.644 27.1l.356.613h16l5.1-8.826 2.548-4.413.352-.617z" style="fill:#05274c"/>
    <path data-name="패스 299" d="m39.847 26.114-1.835 3.178h-13.86l1.835-3.178zM29.234 33.7H21.6l1.835-3.178h7.63z" transform="translate(-9.63 -11.64)" style="fill:#85bcfa"/>
    <path data-name="패스 300" d="m17.7 14.483-4.739 8.208-1.835-3.178 4.739-8.208z" transform="translate(-4.959 -5.039)" style="fill:#2470ed"/>
    <path data-name="패스 301" d="m20.532 22.445-6.93 12-1.835-3.177 6.93-12z" transform="translate(-5.246 -8.589)" style="fill:#2470ed"/>
    <path data-name="패스 302" d="m23.937 14.232-6.93-12h3.669l6.93 12zm5.1 0-4.03-6.972h3.669l4.024 6.972z" transform="translate(-7.581 -.994)" style="fill:#fff"/>
</svg>
