<svg xmlns="http://www.w3.org/2000/svg" width="16.696" height="16.696" viewBox="0 0 16.696 16.696">
    <path style="fill:none" d="M0 0h16.696v16.696H0z"/>
    <g data-name="그룹 331">
        <path data-name="패스 201" d="M43.407 89a9.622 9.622 0 0 0-.156.552.832.832 0 0 1 .428-.542 2.222 2.222 0 0 1 1.762-.858v-.006c-1.266-.364-1.658.052-1.769.248a4.291 4.291 0 0 0-.265.606" transform="translate(-43.15 -82.116)" style="fill:#007aff"/>
        <path data-name="패스 202" d="m62.73 65.95-.186.178c.214-.176.567-.135 1.111.129a2.364 2.364 0 0 1 .443-.568c-.258-.188-.519-.352-.685-.275a5.9 5.9 0 0 0-.683.536" transform="translate(-61.161 -61.012)" style="fill:#007aff"/>
        <path data-name="패스 203" d="M95.488 49.418c-.193.071-.451.166-.642.244a2.342 2.342 0 0 1 .268.345 6.365 6.365 0 0 1 .9-.4c-.052-.216-.065-.324 0-.351-.158.048-.37.108-.526.163" transform="translate(-91.317 -45.945)" style="fill:#007aff"/>
        <path data-name="패스 204" d="M133.828 42.524a29.2 29.2 0 0 0-.979.095c-.153.038-.221.093-.3.324a11.076 11.076 0 0 1 1.209-.161.659.659 0 0 1 .525-.277l-.459.02" transform="translate(-126.519 -39.642)" style="fill:#007aff"/>
        <path data-name="패스 205" d="M176.96 43.625a31.628 31.628 0 0 0-.918-.127 1.177 1.177 0 0 0-.787.187 11.931 11.931 0 0 1 1.258.132 1.576 1.576 0 0 1 .987-.086c-.162-.032-.378-.079-.54-.106" transform="translate(-166.385 -40.566)" style="fill:#007aff"/>
        <path data-name="패스 206" d="M217.59 52.954c-.2-.095-.477-.219-.683-.3a2.111 2.111 0 0 0-1.287-.105 7.811 7.811 0 0 1 .984.378 2.4 2.4 0 0 1 1.608.376c-.185-.107-.431-.251-.621-.345" transform="translate(-204.067 -48.963)" style="fill:#007aff"/>
        <path data-name="패스 207" d="M248.24 70.443a4.684 4.684 0 0 0-.565-1.111l-.146-.2a2.793 2.793 0 0 0-2.212-1.19 3.169 3.169 0 0 1 .564.552 3.243 3.243 0 0 1 2.607 3.33 4.635 4.635 0 0 0-.248-1.38" transform="translate(-231.792 -63.389)" style="fill:#007aff"/>
        <path data-name="패스 208" d="M254.508 94.492a6.43 6.43 0 0 0 .806-.617c.095-.092.222-.214.314-.311 1.854-2.149 1.012-5.25-.98-5.813a1.516 1.516 0 0 1 .034.3v.053a1.5 1.5 0 0 1-.035.293c2.13.962 1.921 4.8-.339 6.22l.2-.124" transform="translate(-240.186 -81.884)" style="fill:#007aff"/>
        <path data-name="패스 209" d="M208.728 115.229c.277-.072.646-.174.921-.259 2.727-1.025 3.162-5.21 1.631-6.216a3.036 3.036 0 0 1-.563.535c1.295 1.428-.032 5.462-2.462 6.041l.474-.1" transform="translate(-197.192 -101.491)" style="fill:#007aff"/>
        <path data-name="패스 210" d="M158.325 131c.257 0 .6-.006.857-.016 2.265-.234 3.877-4.393 3.316-5.695a7.576 7.576 0 0 1-.984.35c-.005 1.663-2.245 5.382-3.851 5.339.2.007.463.022.662.022" transform="translate(-149.961 -116.926)" style="fill:#007aff"/>
        <path data-name="패스 211" d="M111.92 139.542c.253.061.591.139.845.191.945.069 3.325-3.139 4.2-4.835a11.832 11.832 0 0 1-1.262.1c-.686.666-2.5 2.76-2.852 3.173-.916 1.064-1.256 1.266-1.381 1.248l.445.127" transform="translate(-106.842 -125.898)" style="fill:#007aff"/>
        <path data-name="패스 212" d="M74.392 135.957a7.588 7.588 0 0 0 .857.5l.024.012a14.923 14.923 0 0 1 4.042-3.924 11.237 11.237 0 0 1-1.207-.2c-2.077.8-4.2 3.232-3.833 3.531l.117.081" transform="translate(-72.074 -123.515)" style="fill:#007aff"/>
        <path data-name="패스 213" d="M48.883 122.9c.1.132.231.308.336.434-.468-.713 1.5-2.559 3.546-2.99a6.589 6.589 0 0 1-.9-.426c-1.878.2-3.666 1.535-3.3 2.456.09.161.211.376.314.526" transform="translate(-48.069 -111.913)" style="fill:#007aff"/>
        <path data-name="패스 214" d="M41.73 102.526v.09c.008.156.021.364.038.519-.05-1.013 1.487-1.667 2.9-1.621a2.46 2.46 0 0 1-.444-.582 2.713 2.713 0 0 0-2.184.44 2.466 2.466 0 0 0-.309 1.155" transform="translate(-41.729 -94.15)" style="fill:#007aff"/>
    </g>
</svg>
