<svg width="24" height="24" viewBox="0 0 24 24" fill="none" xmlns="http://www.w3.org/2000/svg">
<g id="tokamak1">
<g id="tokamak1_2">
<g id="&#234;&#183;&#184;&#235;&#163;&#185; 331">
<path id="&#237;&#140;&#168;&#236;&#138;&#164; 201" d="M0.360268 10.1193C0.288268 10.3479 0.199602 10.6566 0.141602 10.8906C0.181384 10.7286 0.255557 10.5771 0.359085 10.4463C0.462613 10.3155 0.593072 10.2085 0.741603 10.1326C1.033 9.75758 1.40653 9.45439 1.83346 9.24636C2.26039 9.03832 2.72935 8.93099 3.20427 8.9326V8.92393C1.4356 8.41527 0.886269 8.99726 0.732269 9.27126C0.587128 9.54354 0.463205 9.8266 0.361603 10.1179" fill="#2A72E5"/>
<path id="&#237;&#140;&#168;&#236;&#138;&#164; 202" d="M2.19262 7.40129L1.93262 7.65063C2.23195 7.40529 2.72529 7.46263 3.48529 7.83063C3.6501 7.5356 3.8592 7.26759 4.10529 7.03596C3.74529 6.77263 3.37995 6.54396 3.14862 6.65196C2.81218 6.87791 2.49287 7.12837 2.19329 7.40129" fill="#2A72E5"/>
<path id="&#237;&#140;&#168;&#236;&#138;&#164; 203" d="M5.82897 5.35666C5.56231 5.45599 5.19897 5.588 4.93164 5.69733C5.07148 5.84573 5.19713 6.00687 5.30697 6.17866C5.71017 5.96038 6.12964 5.7736 6.56164 5.62C6.48964 5.318 6.47097 5.16733 6.56164 5.12866C6.34097 5.19533 6.04497 5.27933 5.82831 5.356" fill="#2A72E5"/>
<path id="&#237;&#140;&#168;&#236;&#138;&#164; 204" d="M10.2153 4.52867C9.80461 4.562 9.25661 4.61333 8.84728 4.662C8.63328 4.71533 8.53862 4.792 8.43262 5.114C8.99137 5.00767 9.55556 4.93222 10.1226 4.888C10.206 4.77052 10.3158 4.67424 10.4432 4.60685C10.5705 4.53947 10.7119 4.50288 10.8559 4.5L10.2153 4.52867Z" fill="#2A72E5"/>
<path id="&#237;&#140;&#168;&#236;&#138;&#164; 205" d="M14.7798 4.77531C14.3958 4.71665 13.8825 4.64198 13.4965 4.59798C13.1105 4.55236 12.7207 4.64495 12.3965 4.85931C12.9856 4.88972 13.5726 4.95136 14.1552 5.04398C14.59 4.85635 15.0737 4.81403 15.5345 4.92331C15.3078 4.87865 15.0078 4.81265 14.7798 4.77531Z" fill="#2A72E5"/>
<path id="&#237;&#140;&#168;&#236;&#138;&#164; 206" d="M18.8992 6.07752C18.6145 5.94418 18.2325 5.77152 17.9445 5.65152C17.3746 5.41566 16.7451 5.36436 16.1445 5.50485C16.6141 5.64992 17.0734 5.82655 17.5192 6.03352C18.3069 5.9372 19.1032 6.12335 19.7665 6.55885C19.5079 6.40952 19.1665 6.20818 18.8999 6.07752" fill="#2A72E5"/>
<path id="&#237;&#140;&#168;&#236;&#138;&#164; 207" d="M22.987 10.3587C22.7943 9.80806 22.5288 9.28566 22.1977 8.80537L21.9937 8.52537C21.6444 8.02541 21.1828 7.61423 20.646 7.3248C20.1092 7.03537 19.512 6.87574 18.9023 6.8587C19.1966 7.08318 19.4616 7.34366 19.691 7.63404C21.769 7.92804 23.1997 9.75471 23.335 12.288C23.3177 11.6313 23.2006 10.9809 22.9877 10.3594" fill="#2A72E5"/>
<path id="&#237;&#140;&#168;&#236;&#138;&#164; 208" d="M20.0163 18.1207C20.4138 17.8635 20.7903 17.5753 21.1423 17.2587C21.2756 17.1294 21.453 16.9594 21.5803 16.8241C24.1723 13.8201 22.9943 9.48608 20.211 8.70074C20.2406 8.83727 20.2567 8.97639 20.259 9.11608C20.259 9.14075 20.259 9.16608 20.259 9.19075C20.2562 9.32845 20.2399 9.46556 20.2103 9.60008C23.1877 10.9441 22.895 16.3061 19.7363 18.2934L20.0157 18.1207" fill="#2A72E5"/>
<path id="&#237;&#140;&#168;&#236;&#138;&#164; 209" d="M16.1236 19.7C16.5109 19.6 17.0263 19.456 17.4103 19.3386C21.2209 17.9066 21.8296 12.058 19.6896 10.6506C19.4602 10.9324 19.1956 11.1836 18.9023 11.398C20.7116 13.394 18.8576 19.0313 15.4609 19.8406L16.1236 19.7Z" fill="#2A72E5"/>
<path id="&#237;&#140;&#168;&#236;&#138;&#164; 210" d="M11.6883 20.1673C12.0476 20.164 12.527 20.1586 12.8883 20.1446C16.0543 19.8173 18.307 14.0046 17.523 12.186C17.0763 12.3803 16.6168 12.5436 16.1476 12.6746C16.1403 14.9993 13.0103 20.196 10.7656 20.1366C11.043 20.1466 11.413 20.1666 11.6903 20.1673" fill="#2A72E5"/>
<path id="&#237;&#140;&#168;&#236;&#138;&#164; 211" d="M7.09759 19.5679C7.45092 19.6532 7.92359 19.7626 8.27892 19.8346C9.59959 19.9312 12.9256 15.4479 14.1536 13.0779C13.5686 13.1537 12.98 13.1982 12.3903 13.2112C11.4316 14.1446 8.90226 17.0692 8.40492 17.6466C7.12426 19.1332 6.64892 19.4152 6.47559 19.3899L7.09759 19.5679Z" fill="#2A72E5"/>
<path id="&#237;&#140;&#168;&#236;&#138;&#164; 212" d="M3.23882 17.8894C3.62328 18.1464 4.02413 18.378 4.43882 18.5827L4.47282 18.5994C4.54416 18.2207 7.69149 14.4614 10.1215 13.116C9.5547 13.0552 8.99164 12.9635 8.43482 12.8414C5.53149 13.9547 2.56815 17.3587 3.07815 17.7747L3.24149 17.8874" fill="#2A72E5"/>
<path id="&#237;&#140;&#168;&#236;&#138;&#164; 213" d="M1.13777 15.8546C1.27577 16.0393 1.46111 16.2846 1.60444 16.4606C0.950441 15.4639 3.70711 12.8839 6.56044 12.2819C6.12762 12.1156 5.70799 11.9168 5.30511 11.6873C2.67978 11.9726 0.181109 13.8333 0.695775 15.1199C0.821109 15.3453 0.990442 15.6459 1.13511 15.8533" fill="#2A72E5"/>
<path id="&#237;&#140;&#168;&#236;&#138;&#164; 214" d="M0.000976562 12.2055C0.000976562 12.2477 0.000976562 12.2897 0.000976562 12.3315C0.0123099 12.5495 0.0309778 12.8402 0.0543111 13.0568C-0.0163555 11.6415 2.13298 10.7275 4.10564 10.7902C3.85954 10.5513 3.65056 10.2769 3.48564 9.97618C1.81898 9.76218 0.905644 10.1922 0.434311 10.5902C0.159909 11.0846 0.0113203 11.6388 0.00164286 12.2042" fill="#2A72E5"/>
</g>
</g>
</g>
</svg>
