<svg width="24" height="24" viewBox="0 0 24 24" fill="none" xmlns="http://www.w3.org/2000/svg">
<g id="tokamak1">
<g id="tokamak1_2">
<g id="&#234;&#183;&#184;&#235;&#163;&#185; 331">
<path id="&#237;&#140;&#168;&#236;&#138;&#164; 201" d="M0.360023 9.6193C0.288024 9.84796 0.199357 10.1566 0.141357 10.3906C0.18114 10.2286 0.255313 10.0771 0.358841 9.94631C0.462369 9.81552 0.592827 9.70854 0.741358 9.63263C1.03275 9.25761 1.40628 8.95442 1.83321 8.74639C2.26015 8.53835 2.72911 8.43102 3.20403 8.43263V8.42396C1.43536 7.9153 0.886025 8.49729 0.732025 8.77129C0.586884 9.04357 0.462961 9.32663 0.361359 9.61796" fill="white"/>
<path id="&#237;&#140;&#168;&#236;&#138;&#164; 202" d="M2.19262 6.90129L1.93262 7.15063C2.23195 6.90529 2.72529 6.96263 3.48529 7.33063C3.6501 7.0356 3.8592 6.76759 4.10529 6.53596C3.74529 6.27263 3.37995 6.04396 3.14862 6.15196C2.81218 6.37791 2.49287 6.62837 2.19329 6.90129" fill="white"/>
<path id="&#237;&#140;&#168;&#236;&#138;&#164; 203" d="M5.82873 4.85669C5.56206 4.95603 5.19873 5.08803 4.9314 5.19736C5.07123 5.34576 5.19689 5.5069 5.30673 5.67869C5.70993 5.46041 6.1294 5.27363 6.5614 5.12003C6.4894 4.81803 6.47073 4.66736 6.5614 4.62869C6.34073 4.69536 6.04473 4.77936 5.82806 4.85603" fill="white"/>
<path id="&#237;&#140;&#168;&#236;&#138;&#164; 204" d="M10.2145 4.02867C9.80388 4.062 9.25588 4.11333 8.84655 4.162C8.63255 4.21533 8.53788 4.292 8.43188 4.614C8.99064 4.50767 9.55483 4.43222 10.1219 4.388C10.2053 4.27052 10.3151 4.17424 10.4424 4.10685C10.5698 4.03947 10.7112 4.00288 10.8552 4L10.2145 4.02867Z" fill="white"/>
<path id="&#237;&#140;&#168;&#236;&#138;&#164; 205" d="M14.7796 4.27528C14.3956 4.21661 13.8822 4.14195 13.4962 4.09795C13.1102 4.05233 12.7205 4.14492 12.3962 4.35928C12.9853 4.38969 13.5724 4.45133 14.1549 4.54395C14.5897 4.35632 15.0735 4.314 15.5342 4.42328C15.3076 4.37861 15.0076 4.31261 14.7796 4.27528Z" fill="white"/>
<path id="&#237;&#140;&#168;&#236;&#138;&#164; 206" d="M18.8987 5.57752C18.614 5.44418 18.232 5.27152 17.944 5.15152C17.3741 4.91566 16.7446 4.86436 16.144 5.00485C16.6136 5.14992 17.0729 5.32655 17.5187 5.53352C18.3064 5.4372 19.1027 5.62335 19.766 6.05885C19.5074 5.90952 19.166 5.70818 18.8994 5.57752" fill="white"/>
<path id="&#237;&#140;&#168;&#236;&#138;&#164; 207" d="M22.9868 9.85873C22.7941 9.30809 22.5286 8.78569 22.1974 8.3054L21.9934 8.0254C21.6441 7.52544 21.1826 7.11426 20.6458 6.82483C20.1089 6.5354 19.5117 6.37577 18.9021 6.35873C19.1964 6.58321 19.4613 6.84369 19.6908 7.13407C21.7688 7.42807 23.1994 9.25474 23.3348 11.7881C23.3175 11.1313 23.2003 10.481 22.9874 9.85941" fill="white"/>
<path id="&#237;&#140;&#168;&#236;&#138;&#164; 208" d="M20.0161 17.6207C20.4135 17.3635 20.79 17.0753 21.1421 16.7587C21.2754 16.6294 21.4527 16.4594 21.5801 16.3241C24.1721 13.3201 22.9941 8.98608 20.2107 8.20074C20.2404 8.33727 20.2565 8.47639 20.2587 8.61608C20.2587 8.64075 20.2587 8.66608 20.2587 8.69075C20.256 8.82845 20.2397 8.96556 20.2101 9.10008C23.1874 10.4441 22.8948 15.8061 19.7361 17.7934L20.0154 17.6207" fill="white"/>
<path id="&#237;&#140;&#168;&#236;&#138;&#164; 209" d="M16.1234 19.1999C16.5107 19.0999 17.026 18.9559 17.41 18.8386C21.2207 17.4066 21.8294 11.5579 19.6894 10.1506C19.46 10.4324 19.1954 10.6836 18.902 10.8979C20.7114 12.8939 18.8574 18.5313 15.4607 19.3406L16.1234 19.1999Z" fill="white"/>
<path id="&#237;&#140;&#168;&#236;&#138;&#164; 210" d="M11.688 19.6673C12.0474 19.664 12.5267 19.6586 12.8881 19.6446C16.0541 19.3173 18.3067 13.5046 17.5227 11.686C17.0761 11.8803 16.6165 12.0436 16.1474 12.1746C16.14 14.4993 13.01 19.696 10.7654 19.6366C11.0427 19.6466 11.4127 19.6666 11.69 19.6673" fill="white"/>
<path id="&#237;&#140;&#168;&#236;&#138;&#164; 211" d="M7.09734 19.0679C7.45067 19.1532 7.92334 19.2626 8.27868 19.3346C9.59934 19.4313 12.9253 14.9479 14.1533 12.5779C13.5684 12.6538 12.9797 12.6983 12.39 12.7113C11.4313 13.6446 8.90201 16.5693 8.40468 17.1466C7.12401 18.6333 6.64868 18.9152 6.47534 18.8899L7.09734 19.0679Z" fill="white"/>
<path id="&#237;&#140;&#168;&#236;&#138;&#164; 212" d="M3.23882 17.3894C3.62328 17.6464 4.02413 17.878 4.43882 18.0827L4.47282 18.0994C4.54416 17.7207 7.69149 13.9614 10.1215 12.616C9.5547 12.5552 8.99164 12.4635 8.43482 12.3414C5.53149 13.4547 2.56815 16.8587 3.07815 17.2747L3.24149 17.3874" fill="white"/>
<path id="&#237;&#140;&#168;&#236;&#138;&#164; 213" d="M1.13753 15.3546C1.27553 15.5393 1.46086 15.7846 1.6042 15.9606C0.950197 14.964 3.70687 12.384 6.5602 11.782C6.12738 11.6156 5.70774 11.4168 5.30487 11.1873C2.67953 11.4726 0.180864 13.3333 0.695531 14.62C0.820864 14.8453 0.990198 15.146 1.13486 15.3533" fill="white"/>
<path id="&#237;&#140;&#168;&#236;&#138;&#164; 214" d="M0.000732422 11.7055C0.000732422 11.7478 0.000732422 11.7898 0.000732422 11.8315C0.0120658 12.0495 0.0307336 12.3402 0.054067 12.5569C-0.0165997 11.1415 2.13273 10.2275 4.1054 10.2902C3.85929 10.0513 3.65031 9.77695 3.4854 9.47621C1.81873 9.26221 0.9054 9.69221 0.434067 10.0902C0.159665 10.5846 0.0110761 11.1389 0.00139872 11.7042" fill="white"/>
</g>
</g>
</g>
</svg>
