<svg width="60" height="60" viewBox="0 0 60 60" fill="none" xmlns="http://www.w3.org/2000/svg">
<g id="gallery">
<path id="Vector" d="M22.5 55.0001H37.5C50 55.0001 55 50.0001 55 37.5001V22.5001C55 10.0001 50 5.00012 37.5 5.00012H22.5C10 5.00012 5 10.0001 5 22.5001V37.5001C5 50.0001 10 55.0001 22.5 55.0001Z" stroke="#C7D1D8" stroke-width="2.5" stroke-linecap="round" stroke-linejoin="round"/>
<path id="Vector_2" d="M22.5 25C25.2614 25 27.5 22.7614 27.5 20C27.5 17.2386 25.2614 15 22.5 15C19.7386 15 17.5 17.2386 17.5 20C17.5 22.7614 19.7386 25 22.5 25Z" stroke="#C7D1D8" stroke-width="2.5" stroke-linecap="round" stroke-linejoin="round"/>
<path id="Vector_3" d="M6.67383 47.3751L18.9988 39.1001C20.9738 37.7751 23.8238 37.9251 25.5988 39.4501L26.4238 40.1751C28.3738 41.8501 31.5238 41.8501 33.4738 40.1751L43.8738 31.2501C45.8238 29.5751 48.9738 29.5751 50.9238 31.2501L54.9988 34.7501" stroke="#C7D1D8" stroke-width="2.5" stroke-linecap="round" stroke-linejoin="round"/>
</g>
</svg>
